<svg width="2460" height="2670" viewBox="0 0 1640 1780" xmlns="http://www.w3.org/2000/svg" font-family="'Segoe UI',Arial,sans-serif">
  <defs>
    <filter id="shadow" x="-20%" y="-20%" width="140%" height="140%">
      <feDropShadow dx="0" dy="1.5" stdDeviation="2" flood-color="#000" flood-opacity="0.14"/>
    </filter>
    <marker id="arrow" markerWidth="9" markerHeight="9" refX="7" refY="3" orient="auto" markerUnits="strokeWidth">
      <path d="M0,0 L7,3 L0,6 Z" fill="#5b6b8c"/>
    </marker>
    <marker id="arrowGreen" markerWidth="9" markerHeight="9" refX="7" refY="3" orient="auto" markerUnits="strokeWidth">
      <path d="M0,0 L7,3 L0,6 Z" fill="#1a9e6a"/>
    </marker>
    <marker id="arrowOrange" markerWidth="9" markerHeight="9" refX="7" refY="3" orient="auto" markerUnits="strokeWidth">
      <path d="M0,0 L7,3 L0,6 Z" fill="#d98324"/>
    </marker>
  </defs>

  <rect x="0" y="0" width="1640" height="1780" fill="#f7f8fb"/>

  <!-- ============ TITLE ============ -->
  <text x="40" y="46" font-size="26" font-weight="700" fill="#1a1a2e">Quorum — AI Code Reviewer</text>
  <text x="40" y="72" font-size="14" fill="#6b7280">Multi-agent GitHub PR review platform · LangGraph · FastAPI · AWS EKS</text>

  <!-- ============ LEGEND ============ -->
  <g font-size="12" fill="#374151">
    <rect x="1090" y="30" width="14" height="14" rx="3" fill="#e8ecff" stroke="#7c8fd4"/><text x="1110" y="41">App Service (EKS)</text>
    <rect x="1090" y="52" width="14" height="14" rx="3" fill="#e3f5ec" stroke="#1a9e6a"/><text x="1110" y="63">AI / LangGraph</text>
    <rect x="1240" y="30" width="14" height="14" rx="3" fill="#fdeede" stroke="#d98324"/><text x="1260" y="41">AWS Infra</text>
    <rect x="1240" y="52" width="14" height="14" rx="3" fill="#e6f0f3" stroke="#3b8a9e"/><text x="1260" y="63">Data / Store</text>
    <rect x="1370" y="30" width="14" height="14" rx="3" fill="#ececf3" stroke="#6b7280"/><text x="1390" y="41">Observability</text>
    <rect x="1370" y="52" width="14" height="14" rx="3" fill="#e5e7eb" stroke="#374151"/><text x="1390" y="63">GitHub</text>
  </g>

  <!-- ============ CI/CD BAND ============ -->
  <rect x="40" y="100" width="1000" height="90" rx="12" fill="#efeafc" stroke="#c7b8f0" stroke-dasharray="5 4"/>
  <text x="56" y="122" font-size="13" font-weight="700" fill="#6b46c1">DEVOPS · CI/CD PIPELINE</text>

  <!-- CI/CD nodes -->
  <g filter="url(#shadow)">
    <rect x="70" y="135" width="150" height="42" rx="8" fill="#f2eefd" stroke="#a78bda"/>
    <rect x="270" y="135" width="150" height="42" rx="8" fill="#f2eefd" stroke="#a78bda"/>
    <rect x="470" y="135" width="150" height="42" rx="8" fill="#fdeede" stroke="#d98324"/>
    <rect x="700" y="135" width="290" height="42" rx="8" fill="#fdeede" stroke="#d98324"/>
  </g>
  <text x="145" y="161" font-size="13" text-anchor="middle" fill="#333">GitHub Actions</text>
  <text x="345" y="161" font-size="13" text-anchor="middle" fill="#333">Docker Build</text>
  <text x="545" y="161" font-size="13" text-anchor="middle" fill="#333">AWS ECR</text>
  <text x="845" y="161" font-size="13" font-weight="600" text-anchor="middle" fill="#333">EKS Kubernetes Cluster (hosts all services)</text>

  <line x1="220" y1="156" x2="264" y2="156" stroke="#5b6b8c" stroke-width="1.6" marker-end="url(#arrow)"/>
  <line x1="420" y1="156" x2="464" y2="156" stroke="#5b6b8c" stroke-width="1.6" marker-end="url(#arrow)"/>
  <line x1="620" y1="156" x2="694" y2="156" stroke="#5b6b8c" stroke-width="1.6" marker-end="url(#arrow)"/>

  <!-- ============ TRIGGER (right) ============ -->
  <g filter="url(#shadow)">
    <rect x="1300" y="110" width="200" height="52" rx="8" fill="#e5e7eb" stroke="#374151"/>
    <rect x="1330" y="200" width="140" height="42" rx="8" fill="#e5e7eb" stroke="#374151"/>
  </g>
  <text x="1400" y="132" font-size="13" font-weight="600" text-anchor="middle" fill="#1a1a2e">Developer opens</text>
  <text x="1400" y="150" font-size="13" font-weight="600" text-anchor="middle" fill="#1a1a2e">Pull Request</text>
  <text x="1400" y="226" font-size="13" text-anchor="middle" fill="#1a1a2e">GitHub PR Event</text>
  <line x1="1400" y1="162" x2="1400" y2="196" stroke="#5b6b8c" stroke-width="1.6" marker-end="url(#arrow)"/>

  <!-- ============ INGRESS ============ -->
  <text x="40" y="288" font-size="13" font-weight="700" fill="#374151">① INGRESS &amp; VERIFICATION</text>
  <g filter="url(#shadow)">
    <rect x="1180" y="300" width="180" height="44" rx="8" fill="#e6f0f3" stroke="#3b8a9e"/>
    <rect x="940" y="300" width="200" height="44" rx="8" fill="#fdeede" stroke="#d98324"/>
    <rect x="680" y="300" width="220" height="44" rx="8" fill="#e8ecff" stroke="#7c8fd4"/>
  </g>
  <text x="1270" y="327" font-size="13" text-anchor="middle" fill="#333">Public Webhook URL</text>
  <text x="1040" y="327" font-size="13" text-anchor="middle" fill="#333">AWS App Load Balancer</text>
  <text x="790" y="320" font-size="13" font-weight="600" text-anchor="middle" fill="#333">Gateway Service</text>
  <text x="790" y="337" font-size="11" text-anchor="middle" fill="#6b7280">FastAPI · HMAC verify</text>

  <line x1="1330" y1="242" x2="1290" y2="296" stroke="#5b6b8c" stroke-width="1.6" marker-end="url(#arrow)"/>
  <line x1="1180" y1="322" x2="1144" y2="322" stroke="#5b6b8c" stroke-width="1.6" marker-end="url(#arrow)"/>
  <line x1="940" y1="322" x2="904" y2="322" stroke="#5b6b8c" stroke-width="1.6" marker-end="url(#arrow)"/>

  <!-- gateway sub-actions -->
  <g font-size="11" fill="#6b7280">
    <rect x="680" y="365" width="105" height="34" rx="6" fill="#fff" stroke="#d7ddea"/>
    <rect x="800" y="365" width="105" height="34" rx="6" fill="#fff" stroke="#d7ddea"/>
    <text x="732" y="386" text-anchor="middle">Verify HMAC</text>
    <text x="852" y="386" text-anchor="middle">Reject if fake</text>
  </g>
  <line x1="760" y1="344" x2="740" y2="361" stroke="#9aa6bd" stroke-width="1.2" marker-end="url(#arrow)"/>
  <line x1="820" y1="344" x2="845" y2="361" stroke="#9aa6bd" stroke-width="1.2" marker-end="url(#arrow)"/>

  <!-- ============ INTAKE ============ -->
  <text x="40" y="450" font-size="13" font-weight="700" fill="#374151">② INTAKE &amp; QUEUEING</text>
  <g filter="url(#shadow)">
    <rect x="680" y="465" width="220" height="52" rx="8" fill="#e8ecff" stroke="#7c8fd4"/>
    <rect x="680" y="560" width="220" height="44" rx="8" fill="#fdeede" stroke="#d98324"/>
    <rect x="680" y="650" width="220" height="44" rx="8" fill="#e8ecff" stroke="#7c8fd4"/>
  </g>
  <text x="790" y="486" font-size="13" font-weight="600" text-anchor="middle" fill="#333">Webhook Service</text>
  <text x="790" y="504" font-size="11" text-anchor="middle" fill="#6b7280">FastAPI · parse PR/repo/SHA · dedupe SHA</text>
  <text x="790" y="587" font-size="13" text-anchor="middle" fill="#333">⚡ Redis / ElastiCache Queue</text>
  <text x="790" y="677" font-size="13" text-anchor="middle" fill="#333">⚙ Celery Worker</text>

  <line x1="790" y1="344" x2="790" y2="461" stroke="#5b6b8c" stroke-width="1.6" marker-end="url(#arrow)"/>
  <text x="800" y="405" font-size="10" fill="#6b7280">verified event</text>
  <line x1="790" y1="517" x2="790" y2="556" stroke="#5b6b8c" stroke-width="1.6" marker-end="url(#arrow)"/>
  <text x="800" y="540" font-size="10" fill="#6b7280">push job</text>
  <line x1="790" y1="604" x2="790" y2="646" stroke="#5b6b8c" stroke-width="1.6" marker-end="url(#arrow)"/>

  <!-- ============ ORCHESTRATION ============ -->
  <text x="40" y="748" font-size="13" font-weight="700" fill="#374151">③ ORCHESTRATION</text>
  <g filter="url(#shadow)">
    <rect x="660" y="760" width="260" height="52" rx="8" fill="#e8ecff" stroke="#7c8fd4"/>
  </g>
  <text x="790" y="781" font-size="13" font-weight="600" text-anchor="middle" fill="#333">🧭 Orchestrator Service</text>
  <text x="790" y="799" font-size="11" text-anchor="middle" fill="#6b7280">fetch diff (GitHub API) · load past repo patterns</text>
  <line x1="790" y1="694" x2="790" y2="756" stroke="#5b6b8c" stroke-width="1.6" marker-end="url(#arrow)"/>

  <!-- ============ AI REVIEW ============ -->
  <rect x="360" y="840" width="920" height="230" rx="12" fill="#e9f7f0" stroke="#9cd9bd" stroke-dasharray="5 4"/>
  <text x="378" y="862" font-size="13" font-weight="700" fill="#1a9e6a">④ LANGGRAPH MULTI-AGENT REVIEW</text>

  <g filter="url(#shadow)">
    <rect x="400" y="880" width="180" height="46" rx="8" fill="#e3f5ec" stroke="#1a9e6a"/>
    <rect x="600" y="880" width="180" height="46" rx="8" fill="#e3f5ec" stroke="#1a9e6a"/>
    <rect x="800" y="880" width="180" height="46" rx="8" fill="#e3f5ec" stroke="#1a9e6a"/>
    <rect x="1000" y="880" width="180" height="46" rx="8" fill="#e3f5ec" stroke="#1a9e6a"/>
  </g>
  <text x="490" y="908" font-size="12" text-anchor="middle" fill="#155">🔍 Static Analysis</text>
  <text x="690" y="908" font-size="12" text-anchor="middle" fill="#155">🛡 Security</text>
  <text x="890" y="908" font-size="12" text-anchor="middle" fill="#155">🎨 Style</text>
  <text x="1090" y="908" font-size="12" text-anchor="middle" fill="#155">🏛 Architecture</text>

  <!-- fan out from orchestrator -->
  <path d="M790,812 C790,845 490,850 490,876" fill="none" stroke="#1a9e6a" stroke-width="1.4" marker-end="url(#arrowGreen)"/>
  <path d="M790,812 C790,845 690,850 690,876" fill="none" stroke="#1a9e6a" stroke-width="1.4" marker-end="url(#arrowGreen)"/>
  <path d="M790,812 C790,845 890,850 890,876" fill="none" stroke="#1a9e6a" stroke-width="1.4" marker-end="url(#arrowGreen)"/>
  <path d="M790,812 C790,845 1090,850 1090,876" fill="none" stroke="#1a9e6a" stroke-width="1.4" marker-end="url(#arrowGreen)"/>

  <!-- merge + dedupe -->
  <g filter="url(#shadow)">
    <rect x="620" y="965" width="180" height="42" rx="8" fill="#d4efdf" stroke="#1a9e6a"/>
    <rect x="620" y="1020" width="180" height="40" rx="8" fill="#d4efdf" stroke="#1a9e6a"/>
  </g>
  <text x="710" y="991" font-size="12" font-weight="600" text-anchor="middle" fill="#155">Merge Findings</text>
  <text x="710" y="1044" font-size="12" text-anchor="middle" fill="#155">Remove Duplicates</text>

  <path d="M490,926 C490,950 700,955 700,961" fill="none" stroke="#1a9e6a" stroke-width="1.4" marker-end="url(#arrowGreen)"/>
  <path d="M690,926 L705,961" fill="none" stroke="#1a9e6a" stroke-width="1.4" marker-end="url(#arrowGreen)"/>
  <path d="M890,926 C890,950 720,955 720,961" fill="none" stroke="#1a9e6a" stroke-width="1.4" marker-end="url(#arrowGreen)"/>
  <path d="M1090,926 C1090,950 730,955 730,961" fill="none" stroke="#1a9e6a" stroke-width="1.4" marker-end="url(#arrowGreen)"/>
  <line x1="710" y1="1007" x2="710" y2="1016" stroke="#1a9e6a" stroke-width="1.4" marker-end="url(#arrowGreen)"/>

  <!-- ============ OUTPUT ============ -->
  <text x="40" y="1108" font-size="13" font-weight="700" fill="#374151">⑤ POST REVIEW TO GITHUB</text>
  <g filter="url(#shadow)">
    <rect x="620" y="1120" width="240" height="52" rx="8" fill="#e8ecff" stroke="#7c8fd4"/>
  </g>
  <text x="740" y="1141" font-size="13" font-weight="600" text-anchor="middle" fill="#333">💬 Reviewer Service</text>
  <text x="740" y="1159" font-size="11" text-anchor="middle" fill="#6b7280">App JWT · install token · inline + summary comments</text>
  <line x1="710" y1="1060" x2="720" y2="1116" stroke="#5b6b8c" stroke-width="1.6" marker-end="url(#arrow)"/>

  <g filter="url(#shadow)">
    <rect x="1140" y="1120" width="220" height="52" rx="8" fill="#e5e7eb" stroke="#374151"/>
  </g>
  <text x="1250" y="1147" font-size="13" font-weight="600" text-anchor="middle" fill="#1a1a2e">GitHub PR Updated</text>
  <text x="1250" y="1163" font-size="11" text-anchor="middle" fill="#6b7280">comments visible to developer</text>
  <line x1="860" y1="1146" x2="1136" y2="1146" stroke="#5b6b8c" stroke-width="1.6" marker-end="url(#arrow)"/>

  <!-- dev fix loop -->
  <g filter="url(#shadow)">
    <rect x="1140" y="1230" width="220" height="44" rx="8" fill="#f5f5f5" stroke="#9aa6bd"/>
  </g>
  <text x="1250" y="1257" font-size="12" text-anchor="middle" fill="#555">Developer fixes &amp; pushes again</text>
  <path d="M1250,1172 L1250,1226" fill="none" stroke="#9aa6bd" stroke-width="1.4" marker-end="url(#arrow)"/>
  <path d="M1140,1252 C980,1252 1400,180 1300,150" fill="none" stroke="#9aa6bd" stroke-width="1.2" stroke-dasharray="4 4"/>
  <text x="1150" y="1290" font-size="10" fill="#9aa6bd">re-triggers new PR event ↑</text>

  <!-- ============ LEARNING LOOP ============ -->
  <text x="40" y="1330" font-size="13" font-weight="700" fill="#374151">⑥ CONTINUOUS LEARNING</text>
  <g filter="url(#shadow)">
    <polygon points="1250,1350 1320,1390 1250,1430 1180,1390" fill="#fff8e6" stroke="#d9a824"/>
  </g>
  <text x="1250" y="1394" font-size="12" text-anchor="middle" fill="#8a6d1a">PR Merged?</text>
  <line x1="1250" y1="1274" x2="1250" y2="1346" stroke="#5b6b8c" stroke-width="1.6" marker-end="url(#arrow)"/>

  <g filter="url(#shadow)">
    <rect x="1150" y="1470" width="200" height="46" rx="8" fill="#e3f5ec" stroke="#1a9e6a"/>
    <rect x="1150" y="1550" width="200" height="46" rx="8" fill="#e3f5ec" stroke="#1a9e6a"/>
  </g>
  <text x="1250" y="1493" font-size="12" font-weight="600" text-anchor="middle" fill="#155">📘 Learner Worker</text>
  <text x="1250" y="1511" font-size="11" text-anchor="middle" fill="#6b7280">→ Learner Service</text>
  <text x="1250" y="1573" font-size="12" text-anchor="middle" fill="#155">Extract frequent issues</text>
  <text x="1250" y="1590" font-size="11" text-anchor="middle" fill="#6b7280">→ store repo patterns</text>

  <line x1="1250" y1="1430" x2="1250" y2="1466" stroke="#1a9e6a" stroke-width="1.6" marker-end="url(#arrowGreen)"/>
  <text x="1262" y="1452" font-size="11" fill="#1a9e6a">Yes</text>
  <line x1="1250" y1="1516" x2="1250" y2="1546" stroke="#1a9e6a" stroke-width="1.6" marker-end="url(#arrowGreen)"/>

  <!-- feedback: patterns feed orchestrator -->
  <path d="M1150,1573 C560,1573 560,850 660,800" fill="none" stroke="#1a9e6a" stroke-width="1.3" stroke-dasharray="6 4" marker-end="url(#arrowGreen)"/>
  <text x="380" y="1180" font-size="11" fill="#1a9e6a" transform="rotate(-90 380 1180)">learned patterns → smarter future reviews</text>

  <!-- ============ DATA LAYER ============ -->
  <rect x="1000" y="1640" width="600" height="110" rx="12" fill="#e6f0f3" stroke="#9ec6d3" stroke-dasharray="5 4"/>
  <text x="1018" y="1662" font-size="13" font-weight="700" fill="#3b8a9e">DATA · PostgreSQL RDS</text>
  <g filter="url(#shadow)">
    <rect x="1020" y="1680" width="170" height="46" rx="8" fill="#eaf4f7" stroke="#3b8a9e"/>
    <rect x="1215" y="1680" width="170" height="46" rx="8" fill="#eaf4f7" stroke="#3b8a9e"/>
    <rect x="1410" y="1680" width="170" height="46" rx="8" fill="#eaf4f7" stroke="#3b8a9e"/>
  </g>
  <text x="1105" y="1708" font-size="12" text-anchor="middle" fill="#245">PR metadata</text>
  <text x="1300" y="1708" font-size="12" text-anchor="middle" fill="#245">Findings</text>
  <text x="1495" y="1708" font-size="12" text-anchor="middle" fill="#245">Repo patterns</text>

  <path d="M740,1172 C740,1500 1105,1500 1105,1676" fill="none" stroke="#3b8a9e" stroke-width="1.2" marker-end="url(#arrow)"/>
  <path d="M1250,1596 C1300,1640 1300,1660 1300,1676" fill="none" stroke="#3b8a9e" stroke-width="1.2" marker-end="url(#arrow)"/>
  <path d="M1250,1596 C1495,1640 1495,1660 1495,1676" fill="none" stroke="#3b8a9e" stroke-width="1.2" marker-end="url(#arrow)"/>

  <!-- ============ OBSERVABILITY ============ -->
  <rect x="40" y="1470" width="300" height="150" rx="12" fill="#eeeef4" stroke="#c3c3d4" stroke-dasharray="5 4"/>
  <text x="58" y="1492" font-size="13" font-weight="700" fill="#6b7280">MONITORING &amp; OBSERVABILITY</text>
  <g filter="url(#shadow)">
    <rect x="70" y="1510" width="110" height="42" rx="8" fill="#ececf3" stroke="#6b7280"/>
    <rect x="210" y="1510" width="110" height="42" rx="8" fill="#ececf3" stroke="#6b7280"/>
    <rect x="70" y="1568" width="110" height="42" rx="8" fill="#ececf3" stroke="#6b7280"/>
  </g>
  <text x="125" y="1536" font-size="12" text-anchor="middle" fill="#444">📊 Prometheus</text>
  <text x="265" y="1536" font-size="12" text-anchor="middle" fill="#444">🪶 Langfuse</text>
  <text x="125" y="1594" font-size="12" text-anchor="middle" fill="#444">📈 Grafana</text>
  <line x1="125" y1="1552" x2="125" y2="1564" stroke="#9aa6bd" stroke-width="1.4" marker-end="url(#arrow)"/>
  <text x="200" y="1460" font-size="10" fill="#9aa6bd">all services export metrics + traces ↓</text>
  <path d="M660,786 C300,786 200,1460 150,1506" fill="none" stroke="#c3c3d4" stroke-width="1.1" stroke-dasharray="4 4"/>

</svg>
